<mxfile host="Electron" agent="Mozilla/5.0 (X11; Linux x86_64) AppleWebKit/537.36 (KHTML, like Gecko) draw.io/28.0.6 Chrome/138.0.7204.100 Electron/37.2.3 Safari/537.36" version="28.0.6">
  <diagram name="Page-1" id="4t7oHaE2NX0XibtKcYkh">
    <mxGraphModel dx="1356" dy="848" grid="1" gridSize="10" guides="1" tooltips="1" connect="1" arrows="1" fold="1" page="1" pageScale="1" pageWidth="850" pageHeight="1100" math="0" shadow="0">
      <root>
        <mxCell id="0" />
        <mxCell id="1" parent="0" />
        <mxCell id="5YAu0c5_zvP6CTd3Veq1-1" value="Pipeline steps" style="ellipse;shape=doubleEllipse;whiteSpace=wrap;html=1;" vertex="1" parent="1">
          <mxGeometry x="80" y="50" width="160" height="450" as="geometry" />
        </mxCell>
        <mxCell id="5YAu0c5_zvP6CTd3Veq1-2" value="active thread taps, clone and send data" style="shape=process;whiteSpace=wrap;html=1;backgroundOutline=1;" vertex="1" parent="1">
          <mxGeometry x="300" y="245" width="120" height="60" as="geometry" />
        </mxCell>
        <mxCell id="5YAu0c5_zvP6CTd3Veq1-3" value="" style="shape=flexArrow;endArrow=classic;html=1;rounded=0;" edge="1" parent="1" source="5YAu0c5_zvP6CTd3Veq1-1" target="5YAu0c5_zvP6CTd3Veq1-2">
          <mxGeometry width="50" height="50" relative="1" as="geometry">
            <mxPoint x="340" y="350" as="sourcePoint" />
            <mxPoint x="390" y="300" as="targetPoint" />
          </mxGeometry>
        </mxCell>
        <mxCell id="5YAu0c5_zvP6CTd3Veq1-9" value="Thread Tap" style="swimlane;whiteSpace=wrap;html=1;" vertex="1" parent="1">
          <mxGeometry x="60" y="520" width="400" height="250" as="geometry" />
        </mxCell>
        <mxCell id="5YAu0c5_zvP6CTd3Veq1-10" value="all taps operate on same thread as data" style="rounded=0;whiteSpace=wrap;html=1;" vertex="1" parent="5YAu0c5_zvP6CTd3Veq1-9">
          <mxGeometry x="10" y="30" width="120" height="60" as="geometry" />
        </mxCell>
        <mxCell id="5YAu0c5_zvP6CTd3Veq1-11" value="all taps paired with some sort of frontend element for data observation" style="rounded=0;whiteSpace=wrap;html=1;" vertex="1" parent="5YAu0c5_zvP6CTd3Veq1-9">
          <mxGeometry x="140" y="30" width="120" height="60" as="geometry" />
        </mxCell>
        <mxCell id="5YAu0c5_zvP6CTd3Veq1-14" value="" style="edgeStyle=orthogonalEdgeStyle;rounded=0;orthogonalLoop=1;jettySize=auto;html=1;" edge="1" parent="5YAu0c5_zvP6CTd3Veq1-9" source="5YAu0c5_zvP6CTd3Veq1-12" target="5YAu0c5_zvP6CTd3Veq1-13">
          <mxGeometry relative="1" as="geometry" />
        </mxCell>
        <mxCell id="5YAu0c5_zvP6CTd3Veq1-12" value="all taps hold a crossbeam queue of size specified individually" style="rounded=0;whiteSpace=wrap;html=1;" vertex="1" parent="5YAu0c5_zvP6CTd3Veq1-9">
          <mxGeometry x="270" y="30" width="120" height="60" as="geometry" />
        </mxCell>
        <mxCell id="5YAu0c5_zvP6CTd3Veq1-16" value="" style="edgeStyle=orthogonalEdgeStyle;rounded=0;orthogonalLoop=1;jettySize=auto;html=1;" edge="1" parent="5YAu0c5_zvP6CTd3Veq1-9" source="5YAu0c5_zvP6CTd3Veq1-13" target="5YAu0c5_zvP6CTd3Veq1-15">
          <mxGeometry relative="1" as="geometry" />
        </mxCell>
        <mxCell id="5YAu0c5_zvP6CTd3Veq1-13" value="each queue is consumed by frontend element" style="whiteSpace=wrap;html=1;rounded=0;" vertex="1" parent="5YAu0c5_zvP6CTd3Veq1-9">
          <mxGeometry x="270" y="100" width="120" height="60" as="geometry" />
        </mxCell>
        <mxCell id="5YAu0c5_zvP6CTd3Veq1-15" value="if the queue is full, DO NOT BLOCK computation, ignore and continue" style="whiteSpace=wrap;html=1;rounded=0;" vertex="1" parent="5YAu0c5_zvP6CTd3Veq1-9">
          <mxGeometry x="270" y="170" width="120" height="60" as="geometry" />
        </mxCell>
        <mxCell id="5YAu0c5_zvP6CTd3Veq1-17" value="each frontend element operates in a shared thread, updated by polling. Can set scheduling priority" style="rounded=0;whiteSpace=wrap;html=1;" vertex="1" parent="5YAu0c5_zvP6CTd3Veq1-9">
          <mxGeometry x="10" y="100" width="120" height="110" as="geometry" />
        </mxCell>
        <mxCell id="5YAu0c5_zvP6CTd3Veq1-20" value="" style="edgeStyle=orthogonalEdgeStyle;rounded=0;orthogonalLoop=1;jettySize=auto;html=1;" edge="1" parent="1" source="5YAu0c5_zvP6CTd3Veq1-18" target="5YAu0c5_zvP6CTd3Veq1-19">
          <mxGeometry relative="1" as="geometry" />
        </mxCell>
        <mxCell id="5YAu0c5_zvP6CTd3Veq1-18" value="frontend runtimes on the &#39;client&#39; (eg, the data processing pipeline pushing data to frontend) should have 2 varieties: direct and remote. Direct just has direct crossbeam connection and remote sends via restful calls. Low latency, not batch computing" style="rounded=0;whiteSpace=wrap;html=1;" vertex="1" parent="1">
          <mxGeometry x="470" y="520" width="200" height="180" as="geometry" />
        </mxCell>
        <mxCell id="5YAu0c5_zvP6CTd3Veq1-75" value="" style="edgeStyle=orthogonalEdgeStyle;rounded=0;orthogonalLoop=1;jettySize=auto;html=1;" edge="1" parent="1" source="5YAu0c5_zvP6CTd3Veq1-19" target="5YAu0c5_zvP6CTd3Veq1-74">
          <mxGeometry relative="1" as="geometry" />
        </mxCell>
        <mxCell id="5YAu0c5_zvP6CTd3Veq1-19" value="The server runtime (eg user facing. confusing I know) should have direct crossbeam connections and the option of a restful server to receive remotely. All should be hooked up via containerization ideally. Example architecture below. The utility that sends the requests from remote runtimes should be a variant shared with the direct frontend" style="whiteSpace=wrap;html=1;rounded=0;" vertex="1" parent="1">
          <mxGeometry x="690" y="540" width="200" height="140" as="geometry" />
        </mxCell>
        <mxCell id="5YAu0c5_zvP6CTd3Veq1-21" value="User Facing Frontend Runtime" style="rounded=0;whiteSpace=wrap;html=1;" vertex="1" parent="1">
          <mxGeometry x="60" y="870" width="120" height="60" as="geometry" />
        </mxCell>
        <mxCell id="5YAu0c5_zvP6CTd3Veq1-23" value="Native taps" style="shape=process;whiteSpace=wrap;html=1;backgroundOutline=1;" vertex="1" parent="1">
          <mxGeometry x="60" y="970" width="120" height="60" as="geometry" />
        </mxCell>
        <mxCell id="5YAu0c5_zvP6CTd3Veq1-24" value="Native Computations" style="ellipse;shape=doubleEllipse;whiteSpace=wrap;html=1;" vertex="1" parent="1">
          <mxGeometry x="70" y="1240" width="100" height="60" as="geometry" />
        </mxCell>
        <mxCell id="5YAu0c5_zvP6CTd3Veq1-25" value="" style="shape=flexArrow;endArrow=classic;html=1;rounded=0;" edge="1" parent="1" source="5YAu0c5_zvP6CTd3Veq1-24" target="5YAu0c5_zvP6CTd3Veq1-23">
          <mxGeometry width="50" height="50" relative="1" as="geometry">
            <mxPoint x="160" y="880" as="sourcePoint" />
            <mxPoint x="210" y="830" as="targetPoint" />
          </mxGeometry>
        </mxCell>
        <mxCell id="5YAu0c5_zvP6CTd3Veq1-26" value="" style="shape=flexArrow;endArrow=classic;html=1;rounded=0;" edge="1" parent="1" source="5YAu0c5_zvP6CTd3Veq1-23" target="5YAu0c5_zvP6CTd3Veq1-21">
          <mxGeometry width="50" height="50" relative="1" as="geometry">
            <mxPoint x="160" y="880" as="sourcePoint" />
            <mxPoint x="210" y="830" as="targetPoint" />
          </mxGeometry>
        </mxCell>
        <mxCell id="5YAu0c5_zvP6CTd3Veq1-54" value="Crossbeam ArrayQueue" style="edgeLabel;html=1;align=center;verticalAlign=middle;resizable=0;points=[];" vertex="1" connectable="0" parent="5YAu0c5_zvP6CTd3Veq1-26">
          <mxGeometry x="-0.15" y="-16" relative="1" as="geometry">
            <mxPoint as="offset" />
          </mxGeometry>
        </mxCell>
        <mxCell id="5YAu0c5_zvP6CTd3Veq1-28" value="Restful User Facing Server" style="rounded=1;whiteSpace=wrap;html=1;" vertex="1" parent="1">
          <mxGeometry x="240" y="870" width="120" height="60" as="geometry" />
        </mxCell>
        <mxCell id="5YAu0c5_zvP6CTd3Veq1-30" value="remote taps" style="shape=process;whiteSpace=wrap;html=1;backgroundOutline=1;" vertex="1" parent="1">
          <mxGeometry x="240" y="1070" width="120" height="60" as="geometry" />
        </mxCell>
        <mxCell id="5YAu0c5_zvP6CTd3Veq1-31" value="remote taps" style="shape=process;whiteSpace=wrap;html=1;backgroundOutline=1;" vertex="1" parent="1">
          <mxGeometry x="430" y="1070" width="120" height="60" as="geometry" />
        </mxCell>
        <mxCell id="5YAu0c5_zvP6CTd3Veq1-33" value="frontend runtime request generator" style="rounded=0;whiteSpace=wrap;html=1;" vertex="1" parent="1">
          <mxGeometry x="240" y="970" width="120" height="60" as="geometry" />
        </mxCell>
        <mxCell id="5YAu0c5_zvP6CTd3Veq1-36" value="" style="shape=flexArrow;endArrow=classic;html=1;rounded=0;" edge="1" parent="1" source="5YAu0c5_zvP6CTd3Veq1-30" target="5YAu0c5_zvP6CTd3Veq1-33">
          <mxGeometry width="50" height="50" relative="1" as="geometry">
            <mxPoint x="390" y="1120" as="sourcePoint" />
            <mxPoint x="390" y="1070" as="targetPoint" />
          </mxGeometry>
        </mxCell>
        <mxCell id="5YAu0c5_zvP6CTd3Veq1-37" value="frontend runtime request generator" style="rounded=0;whiteSpace=wrap;html=1;" vertex="1" parent="1">
          <mxGeometry x="430" y="970" width="120" height="60" as="geometry" />
        </mxCell>
        <mxCell id="5YAu0c5_zvP6CTd3Veq1-38" value="" style="shape=flexArrow;endArrow=classic;startArrow=classic;html=1;rounded=0;" edge="1" parent="1" source="5YAu0c5_zvP6CTd3Veq1-21" target="5YAu0c5_zvP6CTd3Veq1-28">
          <mxGeometry width="100" height="100" relative="1" as="geometry">
            <mxPoint x="300" y="1000" as="sourcePoint" />
            <mxPoint x="400" y="900" as="targetPoint" />
          </mxGeometry>
        </mxCell>
        <mxCell id="5YAu0c5_zvP6CTd3Veq1-39" value="Ctrl/data" style="edgeLabel;html=1;align=center;verticalAlign=middle;resizable=0;points=[];" vertex="1" connectable="0" parent="5YAu0c5_zvP6CTd3Veq1-38">
          <mxGeometry y="-1" relative="1" as="geometry">
            <mxPoint as="offset" />
          </mxGeometry>
        </mxCell>
        <mxCell id="5YAu0c5_zvP6CTd3Veq1-43" value="Remote Computations" style="ellipse;shape=doubleEllipse;whiteSpace=wrap;html=1;" vertex="1" parent="1">
          <mxGeometry x="250" y="1240" width="100" height="60" as="geometry" />
        </mxCell>
        <mxCell id="5YAu0c5_zvP6CTd3Veq1-44" value="Remote Computations" style="ellipse;shape=doubleEllipse;whiteSpace=wrap;html=1;" vertex="1" parent="1">
          <mxGeometry x="440" y="1240" width="100" height="60" as="geometry" />
        </mxCell>
        <mxCell id="5YAu0c5_zvP6CTd3Veq1-45" value="" style="shape=flexArrow;endArrow=classic;html=1;rounded=0;" edge="1" parent="1" source="5YAu0c5_zvP6CTd3Veq1-43" target="5YAu0c5_zvP6CTd3Veq1-30">
          <mxGeometry width="50" height="50" relative="1" as="geometry">
            <mxPoint x="120" y="1100" as="sourcePoint" />
            <mxPoint x="120" y="1050" as="targetPoint" />
          </mxGeometry>
        </mxCell>
        <mxCell id="5YAu0c5_zvP6CTd3Veq1-46" value="" style="shape=flexArrow;endArrow=classic;html=1;rounded=0;" edge="1" parent="1" source="5YAu0c5_zvP6CTd3Veq1-44" target="5YAu0c5_zvP6CTd3Veq1-31">
          <mxGeometry width="50" height="50" relative="1" as="geometry">
            <mxPoint x="390" y="1170" as="sourcePoint" />
            <mxPoint x="390" y="1140" as="targetPoint" />
          </mxGeometry>
        </mxCell>
        <mxCell id="5YAu0c5_zvP6CTd3Veq1-47" value="" style="shape=flexArrow;endArrow=classic;html=1;rounded=0;" edge="1" parent="1" source="5YAu0c5_zvP6CTd3Veq1-31" target="5YAu0c5_zvP6CTd3Veq1-37">
          <mxGeometry width="50" height="50" relative="1" as="geometry">
            <mxPoint x="580" y="1080" as="sourcePoint" />
            <mxPoint x="580" y="1050" as="targetPoint" />
          </mxGeometry>
        </mxCell>
        <mxCell id="5YAu0c5_zvP6CTd3Veq1-48" value="" style="shape=flexArrow;endArrow=classic;html=1;rounded=0;" edge="1" parent="1" source="5YAu0c5_zvP6CTd3Veq1-33" target="5YAu0c5_zvP6CTd3Veq1-28">
          <mxGeometry width="50" height="50" relative="1" as="geometry">
            <mxPoint x="430" y="940" as="sourcePoint" />
            <mxPoint x="430" y="910" as="targetPoint" />
          </mxGeometry>
        </mxCell>
        <mxCell id="5YAu0c5_zvP6CTd3Veq1-58" value="http requests" style="edgeLabel;html=1;align=center;verticalAlign=middle;resizable=0;points=[];" vertex="1" connectable="0" parent="5YAu0c5_zvP6CTd3Veq1-48">
          <mxGeometry x="-0.2" y="1" relative="1" as="geometry">
            <mxPoint as="offset" />
          </mxGeometry>
        </mxCell>
        <mxCell id="5YAu0c5_zvP6CTd3Veq1-49" value="" style="shape=flexArrow;endArrow=classic;html=1;rounded=0;" edge="1" parent="1" source="5YAu0c5_zvP6CTd3Veq1-37" target="5YAu0c5_zvP6CTd3Veq1-28">
          <mxGeometry width="50" height="50" relative="1" as="geometry">
            <mxPoint x="490" y="950" as="sourcePoint" />
            <mxPoint x="490" y="920" as="targetPoint" />
          </mxGeometry>
        </mxCell>
        <mxCell id="5YAu0c5_zvP6CTd3Veq1-57" value="http requests" style="edgeLabel;html=1;align=center;verticalAlign=middle;resizable=0;points=[];" vertex="1" connectable="0" parent="5YAu0c5_zvP6CTd3Veq1-49">
          <mxGeometry x="-0.1356" relative="1" as="geometry">
            <mxPoint as="offset" />
          </mxGeometry>
        </mxCell>
        <mxCell id="5YAu0c5_zvP6CTd3Veq1-52" value="" style="endArrow=none;dashed=1;html=1;dashPattern=1 3;strokeWidth=2;rounded=0;exitX=0;exitY=1;exitDx=0;exitDy=0;entryX=0;entryY=0.5;entryDx=0;entryDy=0;" edge="1" parent="1" source="5YAu0c5_zvP6CTd3Veq1-28" target="5YAu0c5_zvP6CTd3Veq1-43">
          <mxGeometry width="50" height="50" relative="1" as="geometry">
            <mxPoint x="320" y="970" as="sourcePoint" />
            <mxPoint x="240" y="1180" as="targetPoint" />
            <Array as="points">
              <mxPoint x="210" y="930" />
              <mxPoint x="210" y="1270" />
            </Array>
          </mxGeometry>
        </mxCell>
        <mxCell id="5YAu0c5_zvP6CTd3Veq1-53" value="logs/ctrl" style="edgeLabel;html=1;align=center;verticalAlign=middle;resizable=0;points=[];" vertex="1" connectable="0" parent="5YAu0c5_zvP6CTd3Veq1-52">
          <mxGeometry x="0.0061" y="2" relative="1" as="geometry">
            <mxPoint as="offset" />
          </mxGeometry>
        </mxCell>
        <mxCell id="5YAu0c5_zvP6CTd3Veq1-55" value="Crossbeam ArrayQueue" style="edgeLabel;html=1;align=center;verticalAlign=middle;resizable=0;points=[];" vertex="1" connectable="0" parent="1">
          <mxGeometry x="300" y="1050" as="geometry" />
        </mxCell>
        <mxCell id="5YAu0c5_zvP6CTd3Veq1-56" value="Crossbeam ArrayQueue" style="edgeLabel;html=1;align=center;verticalAlign=middle;resizable=0;points=[];" vertex="1" connectable="0" parent="1">
          <mxGeometry x="490" y="1050" as="geometry" />
        </mxCell>
        <mxCell id="5YAu0c5_zvP6CTd3Veq1-65" value="" style="shape=flexArrow;endArrow=classic;html=1;rounded=0;" edge="1" parent="1" source="5YAu0c5_zvP6CTd3Veq1-24" target="5YAu0c5_zvP6CTd3Veq1-59">
          <mxGeometry width="50" height="50" relative="1" as="geometry">
            <mxPoint x="320" y="1370" as="sourcePoint" />
            <mxPoint x="370" y="1320" as="targetPoint" />
            <Array as="points">
              <mxPoint x="120" y="1310" />
            </Array>
          </mxGeometry>
        </mxCell>
        <mxCell id="5YAu0c5_zvP6CTd3Veq1-66" value="" style="shape=flexArrow;endArrow=classic;html=1;rounded=0;" edge="1" parent="1" source="5YAu0c5_zvP6CTd3Veq1-43" target="5YAu0c5_zvP6CTd3Veq1-59">
          <mxGeometry width="50" height="50" relative="1" as="geometry">
            <mxPoint x="320" y="1370" as="sourcePoint" />
            <mxPoint x="370" y="1320" as="targetPoint" />
            <Array as="points">
              <mxPoint x="300" y="1330" />
            </Array>
          </mxGeometry>
        </mxCell>
        <mxCell id="5YAu0c5_zvP6CTd3Veq1-67" value="" style="shape=flexArrow;endArrow=classic;html=1;rounded=0;" edge="1" parent="1" source="5YAu0c5_zvP6CTd3Veq1-44" target="5YAu0c5_zvP6CTd3Veq1-59">
          <mxGeometry width="50" height="50" relative="1" as="geometry">
            <mxPoint x="420" y="1370" as="sourcePoint" />
            <mxPoint x="470" y="1320" as="targetPoint" />
            <Array as="points">
              <mxPoint x="490" y="1330" />
            </Array>
          </mxGeometry>
        </mxCell>
        <mxCell id="5YAu0c5_zvP6CTd3Veq1-68" value="dedicated compute node sinks" style="edgeLabel;html=1;align=center;verticalAlign=middle;resizable=0;points=[];" vertex="1" connectable="0" parent="5YAu0c5_zvP6CTd3Veq1-67">
          <mxGeometry x="-0.1765" relative="1" as="geometry">
            <mxPoint x="-118" y="15" as="offset" />
          </mxGeometry>
        </mxCell>
        <mxCell id="5YAu0c5_zvP6CTd3Veq1-70" value="Compute Layer" style="swimlane;whiteSpace=wrap;html=1;" vertex="1" parent="1">
          <mxGeometry x="10" y="1180" width="660" height="270" as="geometry" />
        </mxCell>
        <mxCell id="5YAu0c5_zvP6CTd3Veq1-59" value="High speed compute communication (udp channels for actual dsp operations, minimize latency)" style="rounded=0;whiteSpace=wrap;html=1;" vertex="1" parent="5YAu0c5_zvP6CTd3Veq1-70">
          <mxGeometry x="30" y="190" width="520" height="60" as="geometry" />
        </mxCell>
        <mxCell id="5YAu0c5_zvP6CTd3Veq1-71" value="" style="endArrow=none;dashed=1;html=1;dashPattern=1 3;strokeWidth=2;rounded=0;entryX=1;entryY=0.5;entryDx=0;entryDy=0;exitX=1;exitY=0.5;exitDx=0;exitDy=0;" edge="1" parent="1" source="5YAu0c5_zvP6CTd3Veq1-44" target="5YAu0c5_zvP6CTd3Veq1-28">
          <mxGeometry width="50" height="50" relative="1" as="geometry">
            <mxPoint x="320" y="1170" as="sourcePoint" />
            <mxPoint x="370" y="1120" as="targetPoint" />
            <Array as="points">
              <mxPoint x="600" y="1270" />
              <mxPoint x="600" y="900" />
            </Array>
          </mxGeometry>
        </mxCell>
        <mxCell id="5YAu0c5_zvP6CTd3Veq1-73" value="Communication Layer" style="swimlane;whiteSpace=wrap;html=1;" vertex="1" parent="1">
          <mxGeometry x="10" y="820" width="660" height="350" as="geometry" />
        </mxCell>
        <mxCell id="5YAu0c5_zvP6CTd3Veq1-74" value="critical path should remain local. Only one way ejection to other machines or containers. Only for sources and sinks" style="whiteSpace=wrap;html=1;rounded=0;" vertex="1" parent="1">
          <mxGeometry x="730" y="710" width="120" height="110" as="geometry" />
        </mxCell>
      </root>
    </mxGraphModel>
  </diagram>
</mxfile>
